<?xml version="1.0" standalone="no"?><!DOCTYPE svg PUBLIC "-//W3C//DTD SVG 1.1//EN" "http://www.w3.org/Graphics/SVG/1.1/DTD/svg11.dtd"><svg t="1702819256945" class="icon" viewBox="0 0 1024 1024" version="1.1" xmlns="http://www.w3.org/2000/svg" p-id="12757" xmlns:xlink="http://www.w3.org/1999/xlink" width="200" height="200"><path d="M474.52 59.68c-231.9 0-419.89 187.99-419.89 419.89 0 231.902 187.99 419.9 419.89 419.9 103.116 0 197.425-37.32 270.51-98.99l153.96 153.94 4.79 4.12c16.705 12.392 40.405 11.02 55.55-4.13 16.661-16.664 16.655-43.679-0.01-60.34L804.25 739.03c56.304-71.454 90.17-161.43 90.17-259.46 0-231.9-187.998-419.89-419.9-419.89z m0 85.33c184.773 0 334.57 149.787 334.57 334.56 0 93.402-38.368 177.776-100.09 238.47L651.14 507.3l-57.88 58.66-82.76-81.66 81.9-83.58 60.69 59.47 56.13-218.82-217.63 60.57 60.74 59.52-81.76 83.44-79.96-78.89 61.27-62.53-218.06-55.94c60.852-63.112 146.106-102.53 240.7-102.53zM233.28 248.14l60.35 216.84 57.72-58.91 79.96 78.89-77.25 78.84-61.42-59.76-53.83 212.88c-61.026-60.607-98.85-144.546-98.85-237.35 0-89.888 35.64-171.318 93.32-231.43z m237.96 276.22l82.63 81.52-57.83 58.62 211.36 55c-60.242 58.482-142.288 94.64-232.88 94.64-90.99 0-173.387-36.45-233.7-95.39l211.24-59.58-57.8-56.25z" p-id="12758"></path></svg>